<?xml version="1.0" encoding="iso-8859-1"?>
<!-- Generator: Adobe Illustrator 19.0.0, SVG Export Plug-In . SVG Version: 6.00 Build 0)  -->
<svg version="1.1" id="Capa_1" xmlns="http://www.w3.org/2000/svg" xmlns:xlink="http://www.w3.org/1999/xlink" x="0px" y="0px"
	 viewBox="0 0 432.002 432.002" style="enable-background:new 0 0 432.002 432.002;" xml:space="preserve">
<g>
	<g>
		<path d="M424.002,368.002h-352c-13.232,0-24-10.768-24-24v-288c0-2.128-0.84-4.16-2.344-5.656l-32-32
			c-3.128-3.128-8.184-3.128-11.312,0s-3.128,8.184,0,11.312l29.656,29.656v284.688c0,19.312,13.768,35.472,32,39.192v24.808
			c0,4.424,3.576,8,8,8s8-3.576,8-8v-24h304v24c0,4.424,3.576,8,8,8s8-3.576,8-8v-24h24c4.424,0,8-3.576,8-8
			S428.426,368.002,424.002,368.002z"/>
	</g>
</g>
<g>
	<g>
		<path d="M360.002,144.002h-32h-56v-16h24c4.424,0,8-3.576,8-8s-3.576-8-8-8h-128c-4.424,0-8,3.576-8,8s3.576,8,8,8h24v16h-56h-32
			c-22.056,0-40,17.944-40,40v128c0,22.056,17.944,40,40,40h32h192h32c22.056,0,40-17.944,40-40v-128
			C400.002,161.946,382.058,144.002,360.002,144.002z M128.002,336.002h-24c-13.232,0-24-10.768-24-24v-128
			c0-13.232,10.768-24,24-24h24V336.002z M208.002,128.002h48v16h-48V128.002z M320.002,336.002h-176v-176h176V336.002z
			 M384.002,312.002c0,13.232-10.768,24-24,24h-24v-176h24c13.232,0,24,10.768,24,24V312.002z"/>
	</g>
</g>
<g>
</g>
<g>
</g>
<g>
</g>
<g>
</g>
<g>
</g>
<g>
</g>
<g>
</g>
<g>
</g>
<g>
</g>
<g>
</g>
<g>
</g>
<g>
</g>
<g>
</g>
<g>
</g>
<g>
</g>
</svg>
